<svg id="visual" viewBox="0 0 960 540" width="960" height="540" xmlns="http://www.w3.org/2000/svg" xmlns:xlink="http://www.w3.org/1999/xlink" version="1.1"><rect x="0" y="0" width="960" height="540" fill="#F8F7F2"></rect><path d="M0 195L22.8 192.7C45.7 190.3 91.3 185.7 137 175.8C182.7 166 228.3 151 274 141.2C319.7 131.3 365.3 126.7 411.2 132.5C457 138.3 503 154.7 548.8 160.3C594.7 166 640.3 161 686 167.7C731.7 174.3 777.3 192.7 823 191.3C868.7 190 914.3 169 937.2 158.5L960 148L960 0L937.2 0C914.3 0 868.7 0 823 0C777.3 0 731.7 0 686 0C640.3 0 594.7 0 548.8 0C503 0 457 0 411.2 0C365.3 0 319.7 0 274 0C228.3 0 182.7 0 137 0C91.3 0 45.7 0 22.8 0L0 0Z" fill="#d3d3d3"></path><path d="M0 141L22.8 130.7C45.7 120.3 91.3 99.7 137 96.3C182.7 93 228.3 107 274 112.5C319.7 118 365.3 115 411.2 117.3C457 119.7 503 127.3 548.8 133.7C594.7 140 640.3 145 686 137.5C731.7 130 777.3 110 823 100.5C868.7 91 914.3 92 937.2 92.5L960 93L960 0L937.2 0C914.3 0 868.7 0 823 0C777.3 0 731.7 0 686 0C640.3 0 594.7 0 548.8 0C503 0 457 0 411.2 0C365.3 0 319.7 0 274 0C228.3 0 182.7 0 137 0C91.3 0 45.7 0 22.8 0L0 0Z" fill="#857395"></path><path d="M0 90L22.8 88.7C45.7 87.3 91.3 84.7 137 80.7C182.7 76.7 228.3 71.3 274 71.7C319.7 72 365.3 78 411.2 80.3C457 82.7 503 81.3 548.8 74C594.7 66.7 640.3 53.3 686 56.3C731.7 59.3 777.3 78.7 823 82.8C868.7 87 914.3 76 937.2 70.5L960 65L960 0L937.2 0C914.3 0 868.7 0 823 0C777.3 0 731.7 0 686 0C640.3 0 594.7 0 548.8 0C503 0 457 0 411.2 0C365.3 0 319.7 0 274 0C228.3 0 182.7 0 137 0C91.3 0 45.7 0 22.8 0L0 0Z" fill="#391d59"></path></svg>