<svg id="visual" viewBox="0 0 960 540" width="960" height="540" xmlns="http://www.w3.org/2000/svg" xmlns:xlink="http://www.w3.org/1999/xlink" version="1.1"><rect x="0" y="0" width="960" height="540" fill="#F8F7F2"></rect><path d="M0 180L22.8 177C45.7 174 91.3 168 137 162C182.7 156 228.3 150 274 146.7C319.7 143.3 365.3 142.7 411.2 147.8C457 153 503 164 548.8 167.3C594.7 170.7 640.3 166.3 686 165.7C731.7 165 777.3 168 823 163C868.7 158 914.3 145 937.2 138.5L960 132L960 0L937.2 0C914.3 0 868.7 0 823 0C777.3 0 731.7 0 686 0C640.3 0 594.7 0 548.8 0C503 0 457 0 411.2 0C365.3 0 319.7 0 274 0C228.3 0 182.7 0 137 0C91.3 0 45.7 0 22.8 0L0 0Z" fill="#d3d3d3"></path><path d="M0 96L22.8 101.8C45.7 107.7 91.3 119.3 137 119.5C182.7 119.7 228.3 108.3 274 112.2C319.7 116 365.3 135 411.2 135.5C457 136 503 118 548.8 116.7C594.7 115.3 640.3 130.7 686 136.7C731.7 142.7 777.3 139.3 823 133C868.7 126.7 914.3 117.3 937.2 112.7L960 108L960 0L937.2 0C914.3 0 868.7 0 823 0C777.3 0 731.7 0 686 0C640.3 0 594.7 0 548.8 0C503 0 457 0 411.2 0C365.3 0 319.7 0 274 0C228.3 0 182.7 0 137 0C91.3 0 45.7 0 22.8 0L0 0Z" fill="#857395"></path><path d="M0 73L22.8 68.3C45.7 63.7 91.3 54.3 137 54C182.7 53.7 228.3 62.3 274 68.2C319.7 74 365.3 77 411.2 73.8C457 70.7 503 61.3 548.8 62.7C594.7 64 640.3 76 686 82.7C731.7 89.3 777.3 90.7 823 90C868.7 89.3 914.3 86.7 937.2 85.3L960 84L960 0L937.2 0C914.3 0 868.7 0 823 0C777.3 0 731.7 0 686 0C640.3 0 594.7 0 548.8 0C503 0 457 0 411.2 0C365.3 0 319.7 0 274 0C228.3 0 182.7 0 137 0C91.3 0 45.7 0 22.8 0L0 0Z" fill="#391d59"></path></svg>