<svg id="visual" viewBox="0 0 960 540" width="960" height="540" xmlns="http://www.w3.org/2000/svg" xmlns:xlink="http://www.w3.org/1999/xlink" version="1.1"><rect x="0" y="0" width="960" height="540" fill="#391D59"></rect><path d="M0 170L22.8 170.2C45.7 170.3 91.3 170.7 137 164.7C182.7 158.7 228.3 146.3 274 150.3C319.7 154.3 365.3 174.7 411.2 179.8C457 185 503 175 548.8 168.5C594.7 162 640.3 159 686 166.7C731.7 174.3 777.3 192.7 823 202.7C868.7 212.7 914.3 214.3 937.2 215.2L960 216L960 0L937.2 0C914.3 0 868.7 0 823 0C777.3 0 731.7 0 686 0C640.3 0 594.7 0 548.8 0C503 0 457 0 411.2 0C365.3 0 319.7 0 274 0C228.3 0 182.7 0 137 0C91.3 0 45.7 0 22.8 0L0 0Z" fill="#f6e590"></path><path d="M0 109L22.8 116.2C45.7 123.3 91.3 137.7 137 138.7C182.7 139.7 228.3 127.3 274 126.7C319.7 126 365.3 137 411.2 133.2C457 129.3 503 110.7 548.8 111.5C594.7 112.3 640.3 132.7 686 135.7C731.7 138.7 777.3 124.3 823 121C868.7 117.7 914.3 125.3 937.2 129.2L960 133L960 0L937.2 0C914.3 0 868.7 0 823 0C777.3 0 731.7 0 686 0C640.3 0 594.7 0 548.8 0C503 0 457 0 411.2 0C365.3 0 319.7 0 274 0C228.3 0 182.7 0 137 0C91.3 0 45.7 0 22.8 0L0 0Z" fill="#f7eec1"></path><path d="M0 43L22.8 47.8C45.7 52.7 91.3 62.3 137 69.8C182.7 77.3 228.3 82.7 274 77.3C319.7 72 365.3 56 411.2 53C457 50 503 60 548.8 60.3C594.7 60.7 640.3 51.3 686 48.5C731.7 45.7 777.3 49.3 823 58.5C868.7 67.7 914.3 82.3 937.2 89.7L960 97L960 0L937.2 0C914.3 0 868.7 0 823 0C777.3 0 731.7 0 686 0C640.3 0 594.7 0 548.8 0C503 0 457 0 411.2 0C365.3 0 319.7 0 274 0C228.3 0 182.7 0 137 0C91.3 0 45.7 0 22.8 0L0 0Z" fill="#f8f7f2"></path></svg>